{
	"asset":{
		"generator":"Khronos glTF Blender I/O v4.1.63",
		"version":"2.0"
	},
	"extensionsUsed":[
		"KHR_materials_emissive_strength"
	],
	"scene":0,
	"scenes":[
		{
			"name":"Scene",
			"nodes":[
				11
			]
		}
	],
	"nodes":[
		{
			"mesh":1,
			"name":"Sphere.019",
			"scale":[
				0.061931390315294266,
				0.17765405774116516,
				0.0809541642665863
			],
			"translation":[
				0.9619395732879639,
				0.19509035348892212,
				0.28389349579811096
			]
		},
		{
			"mesh":2,
			"name":"Sphere.021",
			"scale":[
				0.8930222392082214,
				0.8930222392082214,
				0.8930221796035767
			]
		},
		{
			"children":[
				0,
				1
			],
			"mesh":3,
			"name":"Sphere.018",
			"rotation":[
				1.1162316404522699e-08,
				-1.1868554139482512e-07,
				-0.09363629668951035,
				0.9956064820289612
			],
			"scale":[
				0.8999999761581421,
				0.8999999761581421,
				0.8999999761581421
			],
			"translation":[
				-0.0005055472138337791,
				0.03930016607046127,
				0.004689902067184448
			]
		},
		{
			"children":[
				2
			],
			"name":"head",
			"rotation":[
				0,
				1.1920928955078125e-07,
				0,
				1
			],
			"translation":[
				0.0005167755298316479,
				0.801849901676178,
				-0.004689902067184448
			]
		},
		{
			"children":[
				3
			],
			"name":"neck",
			"translation":[
				0,
				0.4649057984352112,
				0
			]
		},
		{
			"children":[
				4
			],
			"name":"body_torso",
			"translation":[
				-1.1229421943426132e-05,
				-1.390763282775879,
				0
			]
		},
		{
			"name":"arm.r",
			"rotation":[
				0.9566832780838013,
				3.470549714279514e-08,
				1.1404556943261923e-07,
				0.29113078117370605
			],
			"translation":[
				-0.0037102187052369118,
				-0.9592905640602112,
				0.2511078417301178
			]
		},
		{
			"name":"arm.l",
			"rotation":[
				-0.9566832780838013,
				5.406142378205914e-08,
				-9.468965345149627e-08,
				0.29113075137138367
			],
			"scale":[
				1,
				1,
				0.9999999403953552
			],
			"translation":[
				0.003687737975269556,
				-0.9592905640602112,
				-0.2511078417301178
			]
		},
		{
			"name":"body_waist",
			"rotation":[
				1,
				0,
				0,
				0
			],
			"translation":[
				-1.1229421943426132e-05,
				-1.390763282775879,
				0
			]
		},
		{
			"mesh":0,
			"name":"Cone.006",
			"skin":0
		},
		{
			"mesh":4,
			"name":"Sphere.020",
			"skin":0
		},
		{
			"children":[
				9,
				10,
				5,
				6,
				7,
				8
			],
			"name":"byuri_armature"
		}
	],
	"animations":[
		{
			"channels":[
				{
					"sampler":0,
					"target":{
						"node":5,
						"path":"translation"
					}
				},
				{
					"sampler":1,
					"target":{
						"node":5,
						"path":"rotation"
					}
				},
				{
					"sampler":2,
					"target":{
						"node":5,
						"path":"scale"
					}
				},
				{
					"sampler":3,
					"target":{
						"node":4,
						"path":"translation"
					}
				},
				{
					"sampler":4,
					"target":{
						"node":4,
						"path":"rotation"
					}
				},
				{
					"sampler":5,
					"target":{
						"node":4,
						"path":"scale"
					}
				},
				{
					"sampler":6,
					"target":{
						"node":3,
						"path":"translation"
					}
				},
				{
					"sampler":7,
					"target":{
						"node":3,
						"path":"rotation"
					}
				},
				{
					"sampler":8,
					"target":{
						"node":3,
						"path":"scale"
					}
				},
				{
					"sampler":9,
					"target":{
						"node":6,
						"path":"translation"
					}
				},
				{
					"sampler":10,
					"target":{
						"node":6,
						"path":"rotation"
					}
				},
				{
					"sampler":11,
					"target":{
						"node":6,
						"path":"scale"
					}
				},
				{
					"sampler":12,
					"target":{
						"node":7,
						"path":"translation"
					}
				},
				{
					"sampler":13,
					"target":{
						"node":7,
						"path":"rotation"
					}
				},
				{
					"sampler":14,
					"target":{
						"node":7,
						"path":"scale"
					}
				},
				{
					"sampler":15,
					"target":{
						"node":8,
						"path":"translation"
					}
				},
				{
					"sampler":16,
					"target":{
						"node":8,
						"path":"rotation"
					}
				},
				{
					"sampler":17,
					"target":{
						"node":8,
						"path":"scale"
					}
				}
			],
			"name":"byuri_armatureAction",
			"samplers":[
				{
					"input":24,
					"interpolation":"LINEAR",
					"output":25
				},
				{
					"input":24,
					"interpolation":"LINEAR",
					"output":26
				},
				{
					"input":24,
					"interpolation":"LINEAR",
					"output":27
				},
				{
					"input":28,
					"interpolation":"STEP",
					"output":29
				},
				{
					"input":24,
					"interpolation":"LINEAR",
					"output":30
				},
				{
					"input":28,
					"interpolation":"STEP",
					"output":31
				},
				{
					"input":24,
					"interpolation":"LINEAR",
					"output":32
				},
				{
					"input":24,
					"interpolation":"LINEAR",
					"output":33
				},
				{
					"input":28,
					"interpolation":"STEP",
					"output":34
				},
				{
					"input":24,
					"interpolation":"LINEAR",
					"output":35
				},
				{
					"input":24,
					"interpolation":"LINEAR",
					"output":36
				},
				{
					"input":24,
					"interpolation":"LINEAR",
					"output":37
				},
				{
					"input":24,
					"interpolation":"LINEAR",
					"output":38
				},
				{
					"input":24,
					"interpolation":"LINEAR",
					"output":39
				},
				{
					"input":24,
					"interpolation":"LINEAR",
					"output":40
				},
				{
					"input":24,
					"interpolation":"LINEAR",
					"output":41
				},
				{
					"input":24,
					"interpolation":"LINEAR",
					"output":42
				},
				{
					"input":24,
					"interpolation":"LINEAR",
					"output":43
				}
			]
		}
	],
	"materials":[
		{
			"doubleSided":true,
			"emissiveFactor":[
				1,
				1,
				1
			],
			"emissiveTexture":{
				"index":0
			},
			"name":"body_uv_test1",
			"pbrMetallicRoughness":{
				"baseColorFactor":[
					0,
					0,
					0,
					1
				]
			}
		},
		{
			"doubleSided":true,
			"name":"EYES",
			"pbrMetallicRoughness":{
				"baseColorFactor":[
					0,
					0,
					0,
					1
				],
				"metallicFactor":0,
				"roughnessFactor":0.5
			}
		},
		{
			"doubleSided":true,
			"emissiveFactor":[
				1,
				1,
				1
			],
			"emissiveTexture":{
				"index":1
			},
			"name":"gltf_byuri_head",
			"pbrMetallicRoughness":{
				"baseColorFactor":[
					0,
					0,
					0,
					1
				]
			}
		},
		{
			"alphaMode":"BLEND",
			"doubleSided":true,
			"emissiveFactor":[
				1,
				1,
				1
			],
			"emissiveTexture":{
				"index":2
			},
			"extensions":{
				"KHR_materials_emissive_strength":{
					"emissiveStrength":3
				}
			},
			"name":"skin_head_outer_forgltf",
			"pbrMetallicRoughness":{
				"baseColorFactor":[
					0.800000011920929,
					0.800000011920929,
					0.800000011920929,
					0.10000000149011612
				],
				"metallicFactor":0,
				"roughnessFactor":0.5
			}
		},
		{
			"doubleSided":true,
			"emissiveFactor":[
				1,
				1,
				1
			],
			"name":"skin_flame_body",
			"pbrMetallicRoughness":{
				"baseColorFactor":[
					0,
					0,
					0,
					1
				]
			}
		}
	],
	"meshes":[
		{
			"name":"Cone.006",
			"primitives":[
				{
					"attributes":{
						"POSITION":0,
						"NORMAL":1,
						"TEXCOORD_0":2,
						"JOINTS_0":3,
						"WEIGHTS_0":4
					},
					"indices":5,
					"material":0
				}
			]
		},
		{
			"name":"Sphere.019",
			"primitives":[
				{
					"attributes":{
						"POSITION":7,
						"NORMAL":8,
						"TEXCOORD_0":9
					},
					"indices":10,
					"material":1
				}
			]
		},
		{
			"name":"Sphere.021",
			"primitives":[
				{
					"attributes":{
						"POSITION":11,
						"NORMAL":12,
						"TEXCOORD_0":13
					},
					"indices":14,
					"material":2
				}
			]
		},
		{
			"name":"Sphere.018",
			"primitives":[
				{
					"attributes":{
						"POSITION":15,
						"NORMAL":16,
						"TEXCOORD_0":17
					},
					"indices":14,
					"material":3
				}
			]
		},
		{
			"name":"Sphere.020",
			"primitives":[
				{
					"attributes":{
						"POSITION":18,
						"NORMAL":19,
						"TEXCOORD_0":20,
						"JOINTS_0":21,
						"WEIGHTS_0":22
					},
					"indices":23,
					"material":4
				}
			]
		}
	],
	"textures":[
		{
			"sampler":0,
			"source":0
		},
		{
			"sampler":0,
			"source":1
		},
		{
			"sampler":0,
			"source":2
		}
	],
	"images":[
		{
			"mimeType":"image/png",
			"name":"body_uv_test",
			"uri":"body_uv_test.png"
		},
		{
			"mimeType":"image/png",
			"name":"byuri_flame_innerhead",
			"uri":"byuri_flame_innerhead.png"
		},
		{
			"mimeType":"image/png",
			"name":"baketest4_inneremit",
			"uri":"baketest4_inneremit.png"
		}
	],
	"skins":[
		{
			"inverseBindMatrices":6,
			"joints":[
				5,
				4,
				3,
				6,
				7,
				8
			],
			"name":"byuri_armature"
		}
	],
	"accessors":[
		{
			"bufferView":0,
			"componentType":5126,
			"count":612,
			"max":[
				0.5621090531349182,
				-0.9421560168266296,
				0.6100158095359802
			],
			"min":[
				-0.5621090531349182,
				-1.812263011932373,
				-0.6100158095359802
			],
			"type":"VEC3"
		},
		{
			"bufferView":1,
			"componentType":5126,
			"count":612,
			"type":"VEC3"
		},
		{
			"bufferView":2,
			"componentType":5126,
			"count":612,
			"type":"VEC2"
		},
		{
			"bufferView":3,
			"componentType":5121,
			"count":612,
			"type":"VEC4"
		},
		{
			"bufferView":4,
			"componentType":5126,
			"count":612,
			"type":"VEC4"
		},
		{
			"bufferView":5,
			"componentType":5123,
			"count":2484,
			"type":"SCALAR"
		},
		{
			"bufferView":6,
			"componentType":5126,
			"count":6,
			"type":"MAT4"
		},
		{
			"bufferView":7,
			"componentType":5126,
			"count":256,
			"max":[
				0.4187507629394531,
				0.5378133058547974,
				0.9195735454559326
			],
			"min":[
				-1.0699810981750488,
				-1.5165849924087524,
				-7.933258056640625
			],
			"type":"VEC3"
		},
		{
			"bufferView":8,
			"componentType":5126,
			"count":256,
			"type":"VEC3"
		},
		{
			"bufferView":9,
			"componentType":5126,
			"count":256,
			"type":"VEC2"
		},
		{
			"bufferView":10,
			"componentType":5123,
			"count":1512,
			"type":"SCALAR"
		},
		{
			"bufferView":11,
			"componentType":5126,
			"count":596,
			"max":[
				0.9999997019767761,
				1,
				0.9999993443489075
			],
			"min":[
				-0.9999990463256836,
				-1,
				-1
			],
			"type":"VEC3"
		},
		{
			"bufferView":12,
			"componentType":5126,
			"count":596,
			"type":"VEC3"
		},
		{
			"bufferView":13,
			"componentType":5126,
			"count":596,
			"type":"VEC2"
		},
		{
			"bufferView":14,
			"componentType":5123,
			"count":2880,
			"type":"SCALAR"
		},
		{
			"bufferView":15,
			"componentType":5126,
			"count":596,
			"max":[
				0.9999997019767761,
				1,
				0.9999993443489075
			],
			"min":[
				-0.9999990463256836,
				-1,
				-1
			],
			"type":"VEC3"
		},
		{
			"bufferView":16,
			"componentType":5126,
			"count":596,
			"type":"VEC3"
		},
		{
			"bufferView":17,
			"componentType":5126,
			"count":596,
			"type":"VEC2"
		},
		{
			"bufferView":18,
			"componentType":5126,
			"count":1118,
			"max":[
				0.09777616709470749,
				-0.929076611995697,
				0.5896074771881104
			],
			"min":[
				-0.1252661794424057,
				-1.4323209524154663,
				-0.5896074771881104
			],
			"type":"VEC3"
		},
		{
			"bufferView":19,
			"componentType":5126,
			"count":1118,
			"type":"VEC3"
		},
		{
			"bufferView":20,
			"componentType":5126,
			"count":1118,
			"type":"VEC2"
		},
		{
			"bufferView":21,
			"componentType":5121,
			"count":1118,
			"type":"VEC4"
		},
		{
			"bufferView":22,
			"componentType":5126,
			"count":1118,
			"type":"VEC4"
		},
		{
			"bufferView":23,
			"componentType":5123,
			"count":5760,
			"type":"SCALAR"
		},
		{
			"bufferView":24,
			"componentType":5126,
			"count":65,
			"max":[
				2.7083333333333335
			],
			"min":[
				0.041666666666666664
			],
			"type":"SCALAR"
		},
		{
			"bufferView":25,
			"componentType":5126,
			"count":65,
			"type":"VEC3"
		},
		{
			"bufferView":26,
			"componentType":5126,
			"count":65,
			"type":"VEC4"
		},
		{
			"bufferView":27,
			"componentType":5126,
			"count":65,
			"type":"VEC3"
		},
		{
			"bufferView":28,
			"componentType":5126,
			"count":2,
			"max":[
				2.7083333333333335
			],
			"min":[
				0.041666666666666664
			],
			"type":"SCALAR"
		},
		{
			"bufferView":29,
			"componentType":5126,
			"count":2,
			"type":"VEC3"
		},
		{
			"bufferView":30,
			"componentType":5126,
			"count":65,
			"type":"VEC4"
		},
		{
			"bufferView":31,
			"componentType":5126,
			"count":2,
			"type":"VEC3"
		},
		{
			"bufferView":32,
			"componentType":5126,
			"count":65,
			"type":"VEC3"
		},
		{
			"bufferView":33,
			"componentType":5126,
			"count":65,
			"type":"VEC4"
		},
		{
			"bufferView":34,
			"componentType":5126,
			"count":2,
			"type":"VEC3"
		},
		{
			"bufferView":35,
			"componentType":5126,
			"count":65,
			"type":"VEC3"
		},
		{
			"bufferView":36,
			"componentType":5126,
			"count":65,
			"type":"VEC4"
		},
		{
			"bufferView":37,
			"componentType":5126,
			"count":65,
			"type":"VEC3"
		},
		{
			"bufferView":38,
			"componentType":5126,
			"count":65,
			"type":"VEC3"
		},
		{
			"bufferView":39,
			"componentType":5126,
			"count":65,
			"type":"VEC4"
		},
		{
			"bufferView":40,
			"componentType":5126,
			"count":65,
			"type":"VEC3"
		},
		{
			"bufferView":41,
			"componentType":5126,
			"count":65,
			"type":"VEC3"
		},
		{
			"bufferView":42,
			"componentType":5126,
			"count":65,
			"type":"VEC4"
		},
		{
			"bufferView":43,
			"componentType":5126,
			"count":65,
			"type":"VEC3"
		}
	],
	"bufferViews":[
		{
			"buffer":0,
			"byteLength":7344,
			"byteOffset":0,
			"target":34962
		},
		{
			"buffer":0,
			"byteLength":7344,
			"byteOffset":7344,
			"target":34962
		},
		{
			"buffer":0,
			"byteLength":4896,
			"byteOffset":14688,
			"target":34962
		},
		{
			"buffer":0,
			"byteLength":2448,
			"byteOffset":19584,
			"target":34962
		},
		{
			"buffer":0,
			"byteLength":9792,
			"byteOffset":22032,
			"target":34962
		},
		{
			"buffer":0,
			"byteLength":4968,
			"byteOffset":31824,
			"target":34963
		},
		{
			"buffer":0,
			"byteLength":384,
			"byteOffset":36792
		},
		{
			"buffer":0,
			"byteLength":3072,
			"byteOffset":37176,
			"target":34962
		},
		{
			"buffer":0,
			"byteLength":3072,
			"byteOffset":40248,
			"target":34962
		},
		{
			"buffer":0,
			"byteLength":2048,
			"byteOffset":43320,
			"target":34962
		},
		{
			"buffer":0,
			"byteLength":3024,
			"byteOffset":45368,
			"target":34963
		},
		{
			"buffer":0,
			"byteLength":7152,
			"byteOffset":48392,
			"target":34962
		},
		{
			"buffer":0,
			"byteLength":7152,
			"byteOffset":55544,
			"target":34962
		},
		{
			"buffer":0,
			"byteLength":4768,
			"byteOffset":62696,
			"target":34962
		},
		{
			"buffer":0,
			"byteLength":5760,
			"byteOffset":67464,
			"target":34963
		},
		{
			"buffer":0,
			"byteLength":7152,
			"byteOffset":73224,
			"target":34962
		},
		{
			"buffer":0,
			"byteLength":7152,
			"byteOffset":80376,
			"target":34962
		},
		{
			"buffer":0,
			"byteLength":4768,
			"byteOffset":87528,
			"target":34962
		},
		{
			"buffer":0,
			"byteLength":13416,
			"byteOffset":92296,
			"target":34962
		},
		{
			"buffer":0,
			"byteLength":13416,
			"byteOffset":105712,
			"target":34962
		},
		{
			"buffer":0,
			"byteLength":8944,
			"byteOffset":119128,
			"target":34962
		},
		{
			"buffer":0,
			"byteLength":4472,
			"byteOffset":128072,
			"target":34962
		},
		{
			"buffer":0,
			"byteLength":17888,
			"byteOffset":132544,
			"target":34962
		},
		{
			"buffer":0,
			"byteLength":11520,
			"byteOffset":150432,
			"target":34963
		},
		{
			"buffer":0,
			"byteLength":260,
			"byteOffset":161952
		},
		{
			"buffer":0,
			"byteLength":780,
			"byteOffset":162212
		},
		{
			"buffer":0,
			"byteLength":1040,
			"byteOffset":162992
		},
		{
			"buffer":0,
			"byteLength":780,
			"byteOffset":164032
		},
		{
			"buffer":0,
			"byteLength":8,
			"byteOffset":164812
		},
		{
			"buffer":0,
			"byteLength":24,
			"byteOffset":164820
		},
		{
			"buffer":0,
			"byteLength":1040,
			"byteOffset":164844
		},
		{
			"buffer":0,
			"byteLength":24,
			"byteOffset":165884
		},
		{
			"buffer":0,
			"byteLength":780,
			"byteOffset":165908
		},
		{
			"buffer":0,
			"byteLength":1040,
			"byteOffset":166688
		},
		{
			"buffer":0,
			"byteLength":24,
			"byteOffset":167728
		},
		{
			"buffer":0,
			"byteLength":780,
			"byteOffset":167752
		},
		{
			"buffer":0,
			"byteLength":1040,
			"byteOffset":168532
		},
		{
			"buffer":0,
			"byteLength":780,
			"byteOffset":169572
		},
		{
			"buffer":0,
			"byteLength":780,
			"byteOffset":170352
		},
		{
			"buffer":0,
			"byteLength":1040,
			"byteOffset":171132
		},
		{
			"buffer":0,
			"byteLength":780,
			"byteOffset":172172
		},
		{
			"buffer":0,
			"byteLength":780,
			"byteOffset":172952
		},
		{
			"buffer":0,
			"byteLength":1040,
			"byteOffset":173732
		},
		{
			"buffer":0,
			"byteLength":780,
			"byteOffset":174772
		}
	],
	"samplers":[
		{
			"magFilter":9729,
			"minFilter":9987
		}
	],
	"buffers":[
		{
			"byteLength":175552,
			"uri":"byuri_flame_alpha_test.bin"
		}
	]
}
