{
	"asset":{
		"generator":"Khronos glTF Blender I/O v4.1.63",
		"version":"2.0"
	},
	"scene":2,
	"scenes":[
		{
			"name":"assets"
		},
		{
			"name":"icons"
		},
		{
			"name":"rooms",
			"nodes":[
				0,
				1,
				2
			]
		},
		{
			"name":"Scene"
		}
	],
	"nodes":[
		{
			"mesh":0,
			"name":"Cube",
			"rotation":[
				0,
				-1,
				0,
				1.6292068494294654e-07
			],
			"scale":[
				3.76739764213562,
				2,
				20
			],
			"translation":[
				0.22486776113510132,
				0.1749163717031479,
				3.4844703674316406
			]
		},
		{
			"mesh":1,
			"name":"Cube.002",
			"rotation":[
				0,
				-1,
				0,
				1.6292068494294654e-07
			],
			"scale":[
				0.35387736558914185,
				0.648746132850647,
				0.648746132850647
			],
			"translation":[
				-3.059703826904297,
				-0.8745818138122559,
				2.748457908630371
			]
		},
		{
			"mesh":2,
			"name":"Sphere.026",
			"rotation":[
				0,
				-1,
				0,
				1.6292068494294654e-07
			],
			"scale":[
				0.6197758913040161,
				0.6197758913040161,
				0.6197758913040161
			],
			"translation":[
				1.3124393224716187,
				0.1749163717031479,
				-2.748457908630371
			]
		}
	],
	"materials":[
		{
			"doubleSided":true,
			"name":"nav_mat_1",
			"pbrMetallicRoughness":{
				"baseColorFactor":[
					0.800000011920929,
					0.800000011920929,
					0.800000011920929,
					1
				],
				"metallicFactor":0,
				"roughnessFactor":0.5
			}
		},
		{
			"doubleSided":true,
			"name":"nav_mat_3",
			"pbrMetallicRoughness":{
				"baseColorFactor":[
					0.2556581199169159,
					0.005629256367683411,
					0.8001810312271118,
					1
				],
				"metallicFactor":0,
				"roughnessFactor":0.5
			}
		},
		{
			"doubleSided":true,
			"name":"nav_mat_2",
			"pbrMetallicRoughness":{
				"baseColorFactor":[
					0.008632965385913849,
					0.012719315476715565,
					0.8002825975418091,
					1
				],
				"metallicFactor":0,
				"roughnessFactor":0.5
			}
		}
	],
	"meshes":[
		{
			"name":"Cube",
			"primitives":[
				{
					"attributes":{
						"POSITION":0,
						"NORMAL":1,
						"TEXCOORD_0":2
					},
					"indices":3,
					"material":0
				}
			]
		},
		{
			"name":"Cube.002",
			"primitives":[
				{
					"attributes":{
						"POSITION":4,
						"NORMAL":5,
						"TEXCOORD_0":6
					},
					"indices":7,
					"material":1
				}
			]
		},
		{
			"name":"Sphere.026",
			"primitives":[
				{
					"attributes":{
						"POSITION":8,
						"NORMAL":9,
						"TEXCOORD_0":10
					},
					"indices":11,
					"material":2
				}
			]
		}
	],
	"accessors":[
		{
			"bufferView":0,
			"componentType":5126,
			"count":46,
			"max":[
				1.6655523777008057,
				1,
				1
			],
			"min":[
				-1,
				-1,
				-0.32975608110427856
			],
			"type":"VEC3"
		},
		{
			"bufferView":1,
			"componentType":5126,
			"count":46,
			"type":"VEC3"
		},
		{
			"bufferView":2,
			"componentType":5126,
			"count":46,
			"type":"VEC2"
		},
		{
			"bufferView":3,
			"componentType":5123,
			"count":84,
			"type":"SCALAR"
		},
		{
			"bufferView":4,
			"componentType":5126,
			"count":24,
			"max":[
				1,
				1,
				1
			],
			"min":[
				-1,
				-1,
				-1
			],
			"type":"VEC3"
		},
		{
			"bufferView":5,
			"componentType":5126,
			"count":24,
			"type":"VEC3"
		},
		{
			"bufferView":6,
			"componentType":5126,
			"count":24,
			"type":"VEC2"
		},
		{
			"bufferView":7,
			"componentType":5123,
			"count":36,
			"type":"SCALAR"
		},
		{
			"bufferView":8,
			"componentType":5126,
			"count":1984,
			"max":[
				0.9999997019767761,
				1,
				0.9999993443489075
			],
			"min":[
				-0.9999990463256836,
				-1,
				-1
			],
			"type":"VEC3"
		},
		{
			"bufferView":9,
			"componentType":5126,
			"count":1984,
			"type":"VEC3"
		},
		{
			"bufferView":10,
			"componentType":5126,
			"count":1984,
			"type":"VEC2"
		},
		{
			"bufferView":11,
			"componentType":5123,
			"count":2880,
			"type":"SCALAR"
		}
	],
	"bufferViews":[
		{
			"buffer":0,
			"byteLength":552,
			"byteOffset":0,
			"target":34962
		},
		{
			"buffer":0,
			"byteLength":552,
			"byteOffset":552,
			"target":34962
		},
		{
			"buffer":0,
			"byteLength":368,
			"byteOffset":1104,
			"target":34962
		},
		{
			"buffer":0,
			"byteLength":168,
			"byteOffset":1472,
			"target":34963
		},
		{
			"buffer":0,
			"byteLength":288,
			"byteOffset":1640,
			"target":34962
		},
		{
			"buffer":0,
			"byteLength":288,
			"byteOffset":1928,
			"target":34962
		},
		{
			"buffer":0,
			"byteLength":192,
			"byteOffset":2216,
			"target":34962
		},
		{
			"buffer":0,
			"byteLength":72,
			"byteOffset":2408,
			"target":34963
		},
		{
			"buffer":0,
			"byteLength":23808,
			"byteOffset":2480,
			"target":34962
		},
		{
			"buffer":0,
			"byteLength":23808,
			"byteOffset":26288,
			"target":34962
		},
		{
			"buffer":0,
			"byteLength":15872,
			"byteOffset":50096,
			"target":34962
		},
		{
			"buffer":0,
			"byteLength":5760,
			"byteOffset":65968,
			"target":34963
		}
	],
	"buffers":[
		{
			"byteLength":71728,
			"uri":"navigatinon_test.bin"
		}
	]
}
