{
	"asset":{
		"generator":"Khronos glTF Blender I/O v4.1.63",
		"version":"2.0"
	},
	"scene":2,
	"scenes":[
		{
			"name":"assets"
		},
		{
			"name":"icons"
		},
		{
			"name":"rooms",
			"nodes":[
				0,
				1,
				2
			]
		},
		{
			"name":"Scene"
		}
	],
	"nodes":[
		{
			"mesh":0,
			"name":"Cube",
			"rotation":[
				0,
				-1,
				0,
				1.6292068494294654e-07
			],
			"scale":[
				3.76739764213562,
				2,
				20
			],
			"translation":[
				0.22486776113510132,
				0.1749163717031479,
				3.4844703674316406
			]
		},
		{
			"mesh":1,
			"name":"Cube.002",
			"rotation":[
				0,
				-1,
				0,
				1.6292068494294654e-07
			],
			"scale":[
				0.35387736558914185,
				0.648746132850647,
				0.648746132850647
			],
			"translation":[
				-3.059703826904297,
				-0.8745818138122559,
				2.748457908630371
			]
		},
		{
			"mesh":2,
			"name":"Sphere.026",
			"rotation":[
				0,
				-1,
				0,
				1.6292067073209182e-07
			],
			"scale":[
				0.8407537341117859,
				0.8407537341117859,
				0.8407537341117859
			],
			"translation":[
				2.490288734436035,
				0.1749163717031479,
				-2.748457908630371
			]
		}
	],
	"materials":[
		{
			"doubleSided":true,
			"name":"nav_mat_1",
			"pbrMetallicRoughness":{
				"baseColorFactor":[
					0.1774289906024933,
					0.3924793601036072,
					0.8009154796600342,
					1
				],
				"metallicFactor":0,
				"roughnessFactor":0.5
			}
		},
		{
			"doubleSided":true,
			"name":"nav_mat2",
			"pbrMetallicRoughness":{
				"baseColorFactor":[
					0.4042157232761383,
					0.8000473976135254,
					0.4279111623764038,
					1
				],
				"metallicFactor":0,
				"roughnessFactor":0.5
			}
		},
		{
			"doubleSided":true,
			"name":"nav_mat_3",
			"pbrMetallicRoughness":{
				"baseColorFactor":[
					0.15266914665699005,
					0.004176067654043436,
					0.46728992462158203,
					1
				],
				"metallicFactor":0,
				"roughnessFactor":0.5
			}
		},
		{
			"doubleSided":true,
			"name":"nav_mat_2",
			"pbrMetallicRoughness":{
				"baseColorFactor":[
					0.8020009994506836,
					0.41497448086738586,
					0.20979122817516327,
					1
				],
				"metallicFactor":0,
				"roughnessFactor":0.5
			}
		}
	],
	"meshes":[
		{
			"name":"Cube",
			"primitives":[
				{
					"attributes":{
						"POSITION":0,
						"NORMAL":1,
						"TEXCOORD_0":2
					},
					"indices":3,
					"material":0
				},
				{
					"attributes":{
						"POSITION":4,
						"NORMAL":5,
						"TEXCOORD_0":6
					},
					"indices":7,
					"material":1
				}
			]
		},
		{
			"name":"Cube.002",
			"primitives":[
				{
					"attributes":{
						"POSITION":8,
						"NORMAL":9,
						"TEXCOORD_0":10
					},
					"indices":11,
					"material":2
				}
			]
		},
		{
			"name":"Sphere.026",
			"primitives":[
				{
					"attributes":{
						"POSITION":12,
						"NORMAL":13,
						"TEXCOORD_0":14
					},
					"indices":15,
					"material":3
				}
			]
		}
	],
	"accessors":[
		{
			"bufferView":0,
			"componentType":5126,
			"count":40,
			"max":[
				1.6655523777008057,
				1,
				1
			],
			"min":[
				-1,
				-1,
				-0.32975608110427856
			],
			"type":"VEC3"
		},
		{
			"bufferView":1,
			"componentType":5126,
			"count":40,
			"type":"VEC3"
		},
		{
			"bufferView":2,
			"componentType":5126,
			"count":40,
			"type":"VEC2"
		},
		{
			"bufferView":3,
			"componentType":5123,
			"count":66,
			"type":"SCALAR"
		},
		{
			"bufferView":4,
			"componentType":5126,
			"count":8,
			"max":[
				1,
				-1,
				1
			],
			"min":[
				-1,
				-1,
				-0.32975608110427856
			],
			"type":"VEC3"
		},
		{
			"bufferView":5,
			"componentType":5126,
			"count":8,
			"type":"VEC3"
		},
		{
			"bufferView":6,
			"componentType":5126,
			"count":8,
			"type":"VEC2"
		},
		{
			"bufferView":7,
			"componentType":5123,
			"count":18,
			"type":"SCALAR"
		},
		{
			"bufferView":8,
			"componentType":5126,
			"count":24,
			"max":[
				1,
				1,
				1
			],
			"min":[
				-1,
				-1,
				-1
			],
			"type":"VEC3"
		},
		{
			"bufferView":9,
			"componentType":5126,
			"count":24,
			"type":"VEC3"
		},
		{
			"bufferView":10,
			"componentType":5126,
			"count":24,
			"type":"VEC2"
		},
		{
			"bufferView":11,
			"componentType":5123,
			"count":36,
			"type":"SCALAR"
		},
		{
			"bufferView":12,
			"componentType":5126,
			"count":1984,
			"max":[
				0.9999997019767761,
				1,
				0.9999993443489075
			],
			"min":[
				-0.9999990463256836,
				-1,
				-1
			],
			"type":"VEC3"
		},
		{
			"bufferView":13,
			"componentType":5126,
			"count":1984,
			"type":"VEC3"
		},
		{
			"bufferView":14,
			"componentType":5126,
			"count":1984,
			"type":"VEC2"
		},
		{
			"bufferView":15,
			"componentType":5123,
			"count":2880,
			"type":"SCALAR"
		}
	],
	"bufferViews":[
		{
			"buffer":0,
			"byteLength":480,
			"byteOffset":0,
			"target":34962
		},
		{
			"buffer":0,
			"byteLength":480,
			"byteOffset":480,
			"target":34962
		},
		{
			"buffer":0,
			"byteLength":320,
			"byteOffset":960,
			"target":34962
		},
		{
			"buffer":0,
			"byteLength":132,
			"byteOffset":1280,
			"target":34963
		},
		{
			"buffer":0,
			"byteLength":96,
			"byteOffset":1412,
			"target":34962
		},
		{
			"buffer":0,
			"byteLength":96,
			"byteOffset":1508,
			"target":34962
		},
		{
			"buffer":0,
			"byteLength":64,
			"byteOffset":1604,
			"target":34962
		},
		{
			"buffer":0,
			"byteLength":36,
			"byteOffset":1668,
			"target":34963
		},
		{
			"buffer":0,
			"byteLength":288,
			"byteOffset":1704,
			"target":34962
		},
		{
			"buffer":0,
			"byteLength":288,
			"byteOffset":1992,
			"target":34962
		},
		{
			"buffer":0,
			"byteLength":192,
			"byteOffset":2280,
			"target":34962
		},
		{
			"buffer":0,
			"byteLength":72,
			"byteOffset":2472,
			"target":34963
		},
		{
			"buffer":0,
			"byteLength":23808,
			"byteOffset":2544,
			"target":34962
		},
		{
			"buffer":0,
			"byteLength":23808,
			"byteOffset":26352,
			"target":34962
		},
		{
			"buffer":0,
			"byteLength":15872,
			"byteOffset":50160,
			"target":34962
		},
		{
			"buffer":0,
			"byteLength":5760,
			"byteOffset":66032,
			"target":34963
		}
	],
	"buffers":[
		{
			"byteLength":71792,
			"uri":"navigation_test.bin"
		}
	]
}
